# xmcd
#
# Track frame offsets:
#	150
#	17702
#	35185
#	47360
#	64455
#	84312
#	99057
#	120375
#	135224
#	157434
#
# Disc length: 2331 seconds
#
# Revision: 1
# Processed by: cddbd v1.5.2PL0 Copyright (c) Steve Scherf et al.
# Submitted via: audiograbber 1.83.01
#
DISCID=7909190a
DTITLE=Orquesta Harlow - Presenta A Ismael Miranda
DYEAR=1971
DGENRE=
TTITLE0=Horsin'up
TTITLE1=La Contraria
TTITLE2=Mi Manera De Ser
TTITLE3=Jagüey
TTITLE4=Yo Me Voy
TTITLE5=Grazin' In The Grass
TTITLE6=Lamento Cubano
TTITLE7=Bobby's Boogaloo
TTITLE8=Rumba A La Vida
TTITLE9=Mi Güajira Si
EXTD=
EXTT0=
EXTT1=
EXTT2=
EXTT3=
EXTT4=
EXTT5=
EXTT6=
EXTT7=
EXTT8=
EXTT9=
PLAYORDER=
